<?xml version="1.0" encoding="UTF-8" standalone="no"?>
<!-- Created with Inkscape (http://www.inkscape.org/) -->

<svg
   width="500.19336"
   height="500.19336"
   viewBox="0 0 500.19336 500.19336"
   version="1.1"
   id="svg1"
   xml:space="preserve"
   xmlns="http://www.w3.org/2000/svg"
   xmlns:svg="http://www.w3.org/2000/svg"><defs
     id="defs1" /><g
     id="layer1"
     transform="translate(-5.9035139,-5.9035139)"><path
       id="rect1"
       style="display:none;opacity:1;fill:#000000;fill-opacity:1;stroke:none;stroke-width:53.7324;stroke-linecap:round;stroke-linejoin:round;stroke-miterlimit:5.2"
       d="M 49.493358,5.4933577 A 44,44 0 0 0 5.4933577,49.493358 V 462.50703 a 44,44 0 0 0 44.0000003,44 H 462.50703 a 44,44 0 0 0 44,-44 V 49.493358 a 44,44 0 0 0 -44,-44.0000003 z M 214.15742,187.58906 h 23.4043 a 0.6526452,0.6526452 0 0 1 0.59765,0.91406 l -13.14257,29.88282 c -0.22234,0.50555 -0.58973,1.32956 -0.68165,1.87304 -0.0419,0.24796 -0.0656,0.52718 -0.0449,0.81055 0.0398,0.54506 0.50792,1.36109 0.96485,1.66211 0.23144,0.15247 0.47831,0.26493 0.71093,0.3457 0.51944,0.18036 1.42038,0.20899 1.97266,0.20899 h 19.75195 a 0.64861554,0.64861554 0 0 1 0.5918,0.91406 l -18.61133,41.67578 c -0.22519,0.50429 -0.62484,1.32246 -0.68554,1.86914 -0.01,0.0869 -0.0148,0.1756 -0.0137,0.26563 0.007,0.53851 0.64529,1.2642 1.15039,1.47656 0.21498,0.0904 0.43532,0.15199 0.64063,0.19531 0.53838,0.11361 1.4399,0.0937 1.99219,0.0937 h 11.94726 a 0.64518393,0.64518393 0 0 1 0.58789,0.91211 l -8.64062,19.09766 a 1.5499456,1.5499456 0 0 1 -1.41211,0.91211 h -27.7207 c -0.55229,0 -1.44616,-0.0421 -1.98829,-0.14649 -1.66476,-0.3204 -4.98683,-1.29445 -6.43164,-4.08008 -0.25388,-0.48949 -0.52555,-1.3471 -0.62109,-1.89062 -0.6075,-3.45582 0.99545,-7.61772 1.80078,-9.41797 0.22542,-0.5039 0.60471,-1.31464 0.82227,-1.82227 l 10.66992,-24.89453 a 0.65939635,0.65939635 0 0 0 -0.60742,-0.91797 h -8.95703 c -0.55229,0 -1.44817,0.0402 -2,0.0273 -1.67192,-0.0391 -5.06647,-0.49632 -7.24415,-3.34961 -0.33468,-0.43852 -0.78961,-1.21458 -0.99023,-1.72852 -1.47238,-3.77189 0.53306,-8.80631 1.48047,-10.82617 0.23442,-0.49977 0.63044,-1.30228 0.85547,-1.80664 l 18.44531,-41.34375 a 1.5411665,1.5411665 0 0 1 1.40625,-0.91211 z m 136.0625,0.17188 h 23.46875 a 1,1 0 0 1 1,1 v 7.63086 a 1,1 0 0 0 1,1 h 11.22461 c 0.55228,0 1.44677,0.004 1.99805,0.0312 3.17009,0.15951 13.17556,1.11268 19.65234,6.79882 0.41498,0.36433 1.055,0.99092 1.43555,1.39063 5.53408,5.81281 6.88056,12.20797 7.20117,14.62109 0.0727,0.54733 0.0977,1.44186 0.0977,1.99414 v 23.81446 a 0.56791166,0.56791166 0 0 0 0.89648,0.26953 h 0.0508 c 0.55229,0 1.44607,-0.0259 1.99805,-0.0332 2.77808,-0.0368 10.81061,0.23493 17.17969,4.19922 0.46883,0.29182 1.20613,0.80222 1.64062,1.14258 5.90058,4.62224 8.11854,12.54986 8.73438,15.30859 0.12031,0.53896 0.19531,1.42819 0.19531,1.98047 v 35.26368 c 0,0.55228 -0.0267,1.4471 -0.084,1.99609 -0.25,2.39524 -1.19687,8.54499 -4.52539,12.14453 -0.37479,0.40531 -1.04974,0.99474 -1.4707,1.35156 -5.36563,4.54807 -9.18534,5.91606 -10.88281,6.32422 -0.53645,0.12899 -1.43209,0.17188 -1.98438,0.17188 h -21.72851 a 1.527765,1.527765 0 0 1 -1.40039,-0.91602 l -8.62891,-19.76562 a 0.65455094,0.65455094 0 0 1 0.59961,-0.91602 h 18.5332 c 0.55229,0 1.44789,-0.0231 1.9961,-0.0859 0.70323,-0.0806 1.64755,-0.23046 2.38867,-0.50195 0.51564,-0.18889 1.2268,-0.76664 1.52929,-1.22656 0.12838,-0.19518 0.22089,-0.38063 0.28516,-0.55078 0.19297,-0.51092 0.125,-1.42819 0.125,-1.98047 v -21.27149 c 0,-0.55228 10e-4,-1.45708 -0.16601,-1.98047 -0.19143,-0.59988 -0.59745,-1.44687 -1.45313,-2.45703 -0.35687,-0.4213 -0.99056,-1.05785 -1.41992,-1.40429 -0.86488,-0.69786 -1.64232,-1.04674 -2.21485,-1.22071 -0.52676,-0.16006 -1.43013,-0.17187 -1.98242,-0.17187 h -39.37109 a 1,1 0 0 0 -1,1 v 52.7539 a 1,1 0 0 1 -1,1 H 350.5852 a 1,1 0 0 1 -1,-1 v -52.7539 a 1,1 0 0 0 -1,-1 h -24.00781 a 0.98224422,0.98224422 0 0 1 -0.98242,-1 l 0.41992,-23.40039 a 1.0180767,1.0180767 0 0 1 1.01758,-1 h 23.1875 a 1,1 0 0 0 1,-1 v -21.45117 a 1,1 0 0 0 -1,-1 H 333.0793 a 0.99365559,0.99365559 0 0 1 -0.99415,-1 l 0.1504,-23.46875 a 1.0063849,1.0063849 0 0 1 1.00585,-1 h 14.97852 a 1,1 0 0 0 1,-1 v -7.63086 a 1,1 0 0 1 1,-1 z m -241.02344,1.59375 h 23.09571 a 1,1 0 0 1 1,1 v 114.77929 c 0,0.55229 0.0163,1.44672 -0.008,1.99805 -0.0933,2.13558 -0.72008,7.34629 -4.42382,12.1875 -0.33555,0.4386 -0.91388,1.12234 -1.29297,1.52344 -4.22809,4.47349 -9.68684,5.57789 -11.89844,5.84765 -0.54807,0.0668 -1.44401,0.0753 -1.99609,0.0605 l -13.17969,-0.35156 a 1.6097803,1.6097803 0 0 1 -1.417971,-0.93555 l -8.876953,-19.23242 a 0.62936513,0.62936513 0 0 1 0.580078,-0.89258 l 11.560546,0.17188 c 0.55222,0.008 1.45644,0.057 1.99414,-0.0586 0.48977,-0.10533 1.11079,-0.33504 1.75,-0.81836 0.43991,-0.33262 1.0463,-1.00908 1.28516,-1.5039 0.39279,-0.81372 0.5436,-1.77171 0.59961,-2.47461 0.0438,-0.55026 0.0263,-1.44577 0.0273,-1.99805 l 0.19922,-108.30273 a 1.0018365,1.0018365 0 0 1 1.00195,-1 z m 326.85742,7.91211 c 0.3619,-10e-4 0.72264,0.006 0.99805,0.0254 6.06726,0.4205 10.49023,5.03808 11.00195,11.68164 0.0424,0.55057 0.0596,1.44659 0.0312,1.99804 -0.33851,6.58586 -5.20604,10.69341 -11.16601,11.17774 -0.55037,0.0447 -1.44595,0.0527 -1.99805,0.0586 -4.74058,0.0508 -9.14989,0.0192 -11.0625,0 l -1,-0.0117 c 2e-5,0 -0.005,-0.44796 -0.01,-1 -0.0175,-2.08851 -0.046,-7.13231 0.0351,-12.07812 0.009,-0.55221 0.0228,-1.44936 0.084,-1.99805 0.65098,-5.83716 5.95965,-9.43507 12.08593,-9.82422 0.27555,-0.0175 0.63811,-0.028 1,-0.0293 z m -177.92187,0.20898 h 56.375 a 1,1 0 0 1 1,1 v 22.88672 a 1,1 0 0 1 -1,1 h -13.92188 a 1,1 0 0 0 -1,1 v 77.23633 a 1,1 0 0 0 1,1 h 22.70508 a 1,1 0 0 1 1,1 v 22.88672 a 1,1 0 0 1 -1,1 H 239.64961 A 0.6537425,0.6537425 0 0 1 239.05,325.56953 l 10.17773,-23.23828 a 1.5296542,1.5296542 0 0 1 1.40039,-0.91602 h 21.42383 a 1,1 0 0 0 1,-1 v -76.5039 a 1,1 0 0 0 -1,-1 h -14.10351 a 0.99283175,0.99283175 0 0 1 -0.99219,-1 l 0.16797,-23.43555 a 1.00722,1.00722 0 0 1 1.00781,-1 z m 130.62891,25.21289 c -0.15324,-0.002 -0.7251,0.0127 -1.27735,0.0195 l -11.3457,0.14063 a 1.0176959,1.0176959 0 0 0 -1.00586,1.01172 l -0.11133,21.45117 a 0.99476669,0.99476669 0 0 0 0.99414,1 h 16.1211 a 1.0020244,1.0020244 0 0 0 1.00195,-1 l 0.0371,-18.27344 c 0.001,-0.55228 -0.0275,-1.464 -0.27149,-1.95508 -0.11724,-0.23595 -0.28425,-0.49869 -0.52343,-0.76953 -0.36486,-0.41315 -1.10191,-0.9417 -1.60352,-1.16992 -0.36261,-0.16498 -0.71171,-0.27193 -1.02344,-0.33985 z m -323.279301,0.86914 h 23.095703 c 0.552285,0 0.974597,0.44864 0.943359,1 -0.162425,2.86691 -0.661255,11.54423 -1.294921,21.27734 -0.03588,0.55112 -0.09414,1.44517 -0.13086,1.9961 -0.800886,12.01496 -2.174598,28.92027 -4.990234,42.54883 -0.111741,0.54086 -0.299557,1.41767 -0.425781,1.95507 -2.642793,11.2517 -8.512503,19.14166 -10.466797,21.53711 -0.349096,0.4279 -0.834341,0.35558 -1.064453,-0.14648 L 58.624217,286.39961 c -0.230112,-0.50206 -0.266006,-1.33125 -0.07617,-1.84961 0.245,-0.66899 0.586044,-1.58718 0.900391,-2.38477 0.202501,-0.5138 0.549345,-1.34159 0.68164,-1.87695 0.204119,-0.826 0.336198,-1.79647 0.414063,-2.50586 0.06025,-0.54895 0.124267,-1.44134 0.164062,-1.99219 l 3.701172,-51.23437 a 1.0748495,1.0748495 0 0 1 1.072266,-0.99805 z m 87.320311,0 h 23.09766 a 1.0748495,1.0748495 0 0 1 1.07031,0.99805 l 3.70117,51.23437 c 0.0398,0.55085 0.1038,1.4432 0.16406,1.99219 0.0779,0.70941 0.20995,1.67987 0.41407,2.50586 0.13229,0.53532 0.47914,1.36315 0.68164,1.87695 0.31434,0.79759 0.65539,1.71578 0.90039,2.38477 0.18983,0.51836 0.15589,1.34755 -0.0742,1.84961 l -12.52539,27.32617 c -0.23011,0.50206 -0.71536,0.57438 -1.06445,0.14648 -1.9543,-2.39545 -7.82401,-10.28541 -10.4668,-21.53711 -0.12623,-0.5374 -0.31404,-1.41421 -0.42578,-1.95507 -2.81564,-13.62856 -4.18935,-30.53387 -4.99024,-42.54883 -0.0367,-0.55093 -0.095,-1.44498 -0.13086,-1.9961 -0.63366,-9.73311 -1.13249,-18.41043 -1.29492,-21.27734 -0.0312,-0.55136 0.39108,-1 0.94336,-1 z m 42.83985,76.11133 c 0.1319,-8.3e-4 0.26606,0.0236 0.39453,0.0742 0.87691,0.34529 2.26816,0.85465 3.6875,1.21875 0.53452,0.13712 1.41256,0.3138 1.95703,0.40625 1.06986,0.18166 1.97436,0.28168 2.60937,0.33789 0.54804,0.0485 1.44186,0.0692 1.99414,0.0703 l 27.69336,0.0547 a 0.64350955,0.64350955 0 0 1 0.58399,0.91015 l -10.28125,22.4668 a 1.5573648,1.5573648 0 0 1 -1.41602,0.9082 h -31.33984 c -0.55229,0 -1.44412,-0.0509 -1.99219,-0.11914 -0.44794,-0.0558 -0.9993,-0.12626 -1.54687,-0.20312 -0.54679,-0.0768 -1.4316,-0.21979 -1.96875,-0.34766 -0.56835,-0.13529 -1.13973,-0.29854 -1.59766,-0.4375 -0.52688,-0.15988 -0.76376,-0.71103 -0.5332,-1.21289 l 10.80859,-23.52539 c 0.17291,-0.37639 0.55155,-0.59907 0.94727,-0.60156 z" /><path
       id="path1"
       style="display:inline;opacity:1;fill:#ffffff;fill-opacity:1;stroke:none;stroke-width:53.7324;stroke-linecap:round;stroke-linejoin:round;stroke-miterlimit:5.2"
       d="M 118.90351,5.9035139 A 113,113 0 0 0 5.9035139,118.90351 v 274.19336 a 113,113 0 0 0 112.9999961,113 h 274.19336 a 113,113 0 0 0 113,-113 V 118.90351 a 113,113 0 0 0 -113,-112.9999961 z M 257.21406,66.309764 a 328.14705,328.14705 0 0 1 2,0 l 85.16406,0.257812 c 0.55229,0.0017 1.44825,0.0077 2,0.0293 5.84234,0.228208 36.23971,2.497434 63.06836,25.046875 0.42278,0.355348 1.10216,0.937034 1.51758,1.300782 28.86081,25.270897 33.83621,60.585757 34.51172,66.929687 0.0585,0.54917 0.0937,1.44381 0.0937,1.99609 v 186.5957 c 0,0.55228 -0.0306,1.44631 -0.082,1.9961 -0.55141,5.89399 -4.32747,36.72481 -24.43945,59.86914 -0.36225,0.41687 -0.95812,1.08407 -1.33008,1.49219 -23.34774,25.61781 -58.50043,34.13671 -64.78711,35.49023 -0.53991,0.1162 -1.42819,0.20117 -1.98047,0.20117 h -95.73633 -93.73633 c -0.55228,0 -1.43869,-0.0849 -1.97851,-0.20117 -6.28623,-1.35342 -41.44112,-9.8723 -64.789065,-35.49023 -0.372019,-0.40818 -0.967876,-1.07538 -1.330079,-1.49219 -20.111889,-23.14415 -23.887983,-53.97477 -24.439453,-59.86914 -0.05145,-0.54987 -0.08203,-1.44382 -0.08203,-1.9961 v -186.5957 c 0,-0.55228 0.03529,-1.44704 0.09375,-1.99609 0.675427,-6.34337 5.650748,-41.65853 34.511717,-66.929687 0.41551,-0.363826 1.09487,-0.945493 1.51758,-1.300782 26.82843,-22.549287 57.22561,-24.818624 63.06836,-25.046875 0.55184,-0.02158 1.44771,-0.0276 2,-0.0293 z m -75.57812,32.931641 c -0.55226,-0.0051 -1.44782,-1.7e-4 -2,0.0098 -10.67222,0.191682 -32.74688,2.818205 -52.51563,19.349605 -0.42367,0.3543 -1.10397,0.93695 -1.51758,1.30273 -23.46396,20.75195 -22.81593,50.74952 -22.44922,56.56446 0.0348,0.55118 0.0781,1.44382 0.0781,1.9961 v 154.01171 c 0,0.55228 -0.0442,1.44521 -0.082,1.99609 -0.39424,5.75225 -1.35076,35.16134 18.16797,55.38869 0.3835,0.3974 1.01742,1.02989 1.41211,1.41601 23.61337,23.09968 49.8991,23.53253 55.29296,23.35742 0.55195,-0.0179 1.44577,-0.0508 1.99805,-0.0508 h 79.19336 77.19531 c 0.55228,0 1.44622,0.0329 1.99805,0.0508 5.39334,0.17513 31.67932,-0.25759 55.29297,-23.35742 0.3948,-0.3862 1.02868,-1.01866 1.41211,-1.41601 19.51866,-20.22713 18.56222,-49.63601 18.16797,-55.38869 -0.0378,-0.55098 -0.082,-1.44381 -0.082,-1.99609 V 178.46406 c 0,-0.55228 0.0433,-1.44505 0.0781,-1.99609 0.3667,-5.8144 1.01486,-35.81225 -22.44922,-56.56446 -0.41369,-0.36588 -1.09399,-0.94851 -1.51758,-1.30273 -24.44525,-20.442169 -52.41731,-19.62261 -57.99414,-19.228516 -0.55088,0.03893 -1.4438,0.08373 -1.99609,0.08203 l -70.10547,-0.210937 a 329.62053,329.62053 0 0 0 -2,0 l -70.10351,0.210937 c -0.55229,0.0017 -1.44452,-0.04312 -1.99415,-0.08203 -0.76264,-0.05399 -1.94486,-0.116499 -3.48046,-0.130859 z m 177.45507,31.578125 c 0.55173,-0.0239 1.44828,-0.0238 2,0 11.77309,0.50822 21.22708,9.96133 21.73633,21.73437 0.0239,0.55173 0.0238,1.44828 0,2 -0.50825,11.77384 -9.9625,21.22807 -21.73633,21.73633 -0.55173,0.0238 -1.44828,0.0239 -2,0 -11.77304,-0.50924 -21.22614,-9.96324 -21.73437,-21.73633 -0.0238,-0.55173 -0.0239,-1.44828 0,-2 0.50921,-11.77229 9.96208,-21.22516 21.73437,-21.73437 z m -102.31836,26.4082 c 0.55225,-0.005 1.44775,-0.005 2,0 54.24976,0.53252 98.12569,44.40845 98.65821,98.65821 0.005,0.55225 0.005,1.44775 0,2 -0.53358,54.24898 -44.40921,98.12374 -98.65821,98.65625 -0.55225,0.005 -1.44775,0.005 -2,0 -54.24822,-0.53358 -98.12268,-44.40803 -98.65625,-98.65625 -0.005,-0.55225 -0.005,-1.44775 0,-2 0.53251,-54.24899 44.40727,-98.12463 98.65625,-98.65821 z m 0,33.94727 c -35.50114,0.53 -64.18004,29.20979 -64.70898,64.71094 -0.008,0.55222 -0.008,1.44778 0,2 0.52999,35.50038 29.2086,64.17899 64.70898,64.70898 0.55222,0.008 1.44778,0.008 2,0 35.50115,-0.52894 64.18094,-29.20784 64.71094,-64.70898 0.008,-0.55222 0.008,-1.44778 0,-2 -0.52895,-35.50191 -29.20903,-64.18199 -64.71094,-64.71094 -0.55222,-0.008 -1.44778,-0.008 -2,0 z" /></g></svg>
