<?xml version="1.0" encoding="UTF-8" standalone="no"?>
<!-- Created with Inkscape (http://www.inkscape.org/) -->

<svg
   width="501.01398"
   height="501.01398"
   viewBox="0 0 501.01398 501.01398"
   version="1.1"
   id="svg1"
   xml:space="preserve"
   xmlns="http://www.w3.org/2000/svg"
   xmlns:svg="http://www.w3.org/2000/svg"><defs
     id="defs1" /><g
     id="layer1"
     transform="translate(-5.4931989,-5.4931989)"><path
       id="rect2"
       style="display:inline;fill:#ffffff;fill-opacity:1;stroke:#ffffff;stroke-width:0.82063;stroke-linecap:round;stroke-linejoin:round;stroke-miterlimit:5.2"
       d="M 118.90351,5.9035139 A 113,113 0 0 0 5.9035139,118.90351 v 274.19336 a 113,113 0 0 0 112.9999961,113 h 274.19336 a 113,113 0 0 0 113,-113 V 118.90351 a 113,113 0 0 0 -113,-112.9999961 z m 70.86914,62.5273441 c 12.3226,-0.01225 21.61024,0.873455 32.95704,3.140625 41.19843,8.23173 77.0677,31.650507 98.67773,64.423827 9.64724,14.63079 15.66487,29.95651 18.51172,47.1543 0.64132,3.8742 1.25689,8.85944 1.11328,9.01562 -0.0463,0.0504 -0.67179,0.12552 -1.38867,0.16602 -39.30945,2.2225 -71.57957,14.43647 -97.24414,36.80469 -3.95009,3.44274 -11.56704,11.10341 -14.71289,14.79882 -11.26818,13.23668 -18.63641,26.07047 -23.6875,41.25586 -4.95694,14.90233 -7.06463,31.26025 -6.17383,47.91797 0.14771,2.76212 0.27967,5.30513 0.29297,5.65039 0.0197,0.51099 -0.0539,0.61938 -0.39453,0.58008 -0.87823,-0.10129 -13.88545,-1.75534 -20.14063,-2.56055 -14.08116,-1.81261 -23.27854,-2.72765 -27.35937,-2.72265 -4.46499,0.005 -7.73936,0.60575 -10.65821,1.95703 -3.53103,1.63469 -13.02616,7.37949 -31.57422,19.10156 -7.34562,4.64231 -13.398224,8.44141 -13.449214,8.44141 -0.051,0 -0.04225,-0.21177 0.01758,-0.47071 0.467423,-2.02292 0.932357,-4.21826 2.408203,-11.34765 2.028134,-9.79734 3.261031,-15.25698 4.392581,-19.46485 2.58216,-9.60217 2.77393,-10.7195 2.31054,-13.46679 -0.60447,-3.58372 -2.75382,-6.23861 -8.374996,-10.34571 C 87.452751,302.72944 81.624732,297.78228 75.403514,291.57539 64.389902,280.58714 56.150691,269.27427 49.78828,256.40156 37.084289,230.69829 34.267453,202.38814 41.616405,174.28828 51.92636,134.86657 75.975272,105.58568 113.42109,86.862498 c 13.12648,-6.563332 28.11818,-11.865986 42.0586,-14.876953 11.65115,-2.516512 21.53676,-3.542007 34.29296,-3.554687 z m -53.32617,88.650392 c -7.95057,-0.26605 -15.52891,4.73206 -18.05078,13.02148 -0.51524,1.69365 -0.57422,2.19874 -0.57422,5.02149 0,2.81985 0.0579,3.32909 0.57032,5.01172 1.97468,6.48383 6.91154,11.09928 13.41796,12.54492 1.0702,0.2378 2.31024,0.3053 4.60352,0.2539 2.7402,-0.0614 3.36519,-0.1426 4.91797,-0.64648 3.17028,-1.02876 5.25832,-2.24941 7.5039,-4.38672 2.45568,-2.33728 4.19947,-5.29614 5.06446,-8.5918 0.52556,-2.00239 0.63061,-5.63458 0.21679,-7.5332 -1.16589,-5.34917 -4.77454,-10.00288 -9.76953,-12.60156 -2.55935,-1.33152 -5.2502,-2.00507 -7.90039,-2.09375 z m 115.68164,0.0879 c -2.5724,0.003 -3.15574,0.0721 -4.79492,0.56641 -3.24676,0.97911 -5.7127,2.39351 -8.04492,4.61328 -7.20924,6.86165 -7.55568,17.8394 -0.78906,24.96289 3.07781,3.24014 6.42293,4.97786 10.97461,5.70117 1.75854,0.27945 5.34112,0.0776 7.25781,-0.41016 7.8043,-1.98616 13.07053,-8.47109 13.44141,-16.55468 0.0659,-1.43693 0.0121,-3.01425 -0.13282,-3.8711 -1.19914,-7.08907 -6.2778,-12.64214 -13.30859,-14.55469 -1.35051,-0.36739 -2.24014,-0.45612 -4.60352,-0.45312 z m 92.88672,49.96094 c 22.32992,0.1999 44.57703,5.41231 63.94727,15.19336 24.3658,12.30356 42.7935,30.65308 54.30469,54.07812 11.14095,22.67162 13.98618,47.45527 8.13476,70.86719 -3.82813,15.31664 -10.80962,28.88969 -21.45312,41.71094 -1.90516,2.29498 -8.90263,9.3739 -13.40039,13.55664 -4.38023,4.07344 -7.31262,7.77354 -8.97657,11.32617 -1.21903,2.60272 -1.68023,4.476 -1.80664,7.3418 -0.18579,4.2119 0.67604,7.62275 3.27149,12.95117 1.69269,3.47505 1.57089,3.1042 2.42773,7.3457 0.37199,1.84142 0.64949,3.37756 0.61719,3.41406 -0.052,0.0587 -2.90157,-1.37573 -17.57227,-8.84375 -6.31138,-3.21277 -11.40139,-5.16291 -16.21875,-6.21679 -1.90855,-0.4175 -2.77274,-0.48057 -6.58984,-0.47657 -5.85271,0.006 -8.37795,0.4753 -19.56641,3.64063 -7.2919,2.06296 -11.60095,3.04347 -15.17187,3.44922 -16.92201,1.92277 -34.19212,0.79756 -49.9043,-3.25 -20.07298,-5.17093 -38.79539,-15.47669 -54.90039,-30.22071 -22.68587,-20.76877 -35.6308,-46.11531 -37.81836,-74.05273 -0.31047,-3.96507 -0.13062,-14.0773 0.31836,-17.91211 2.48366,-21.21334 10.94276,-40.37354 25.4043,-57.54297 4.95637,-5.88445 13.71128,-14.0976 20.4375,-19.17187 18.20077,-13.73068 39.08019,-22.34967 62.26172,-25.70118 7.35798,-1.06379 14.81059,-1.55296 22.2539,-1.48632 z m 35.94531,66.26367 c -5.58651,-0.30321 -11.17221,2.64711 -13.92382,7.90625 -1.28012,2.44668 -1.69455,4.178 -1.68555,7.0293 0.01,2.88406 0.35084,4.42656 1.48437,6.69531 2.15701,4.31723 6.00601,7.19396 10.76563,8.04492 1.73979,0.31105 4.86475,0.10105 6.77734,-0.45508 4.87468,-1.41743 8.7947,-5.46525 10.08399,-10.41406 0.48879,-1.87447 0.48948,-5.72059 0.002,-7.5332 -1.19527,-4.44345 -3.99529,-7.8826 -8.02148,-9.85157 -1.75732,-0.85939 -3.62025,-1.3208 -5.48243,-1.42187 z m -95.63085,0.0293 c -2.69633,0.1157 -4.51245,0.61969 -6.66211,1.8496 -5.33529,3.05255 -8.50409,9.31223 -7.61524,15.04102 0.55253,3.5611 1.78026,5.94919 4.42969,8.61523 1.50941,1.51887 2.11833,1.96633 3.76758,2.76758 1.08164,0.5255 2.53017,1.0915 3.2207,1.25782 1.89495,0.45646 5.36099,0.42138 7.29883,-0.0742 4.09942,-1.04845 7.71858,-3.88292 9.63281,-7.54102 1.25228,-2.39311 1.68283,-4.17143 1.67383,-6.9043 -0.01,-2.8515 -0.35738,-4.34864 -1.60742,-6.90625 -0.70126,-1.43481 -1.23424,-2.14643 -2.75977,-3.68359 -1.57408,-1.58608 -2.2142,-2.06487 -3.81445,-2.85937 -2.64933,-1.31536 -4.48431,-1.69466 -7.56445,-1.5625 z" /></g></svg>
